<svg id="openai-symbol" xmlns="http://www.w3.org/2000/svg" viewBox="0 0 139 34"><path d="M4.55 8.925V24.725H12.5V27H2.1V8.925H4.55ZM15.9115 11.875C15.0615 11.875 14.3615 11.175 14.3615 10.325C14.3615 9.45 15.0615 8.775 15.9115 8.775C16.7615 8.775 17.4615 9.45 17.4615 10.325C17.4615 11.175 16.7615 11.875 15.9115 11.875ZM14.7615 27V14.775H17.1115V27H14.7615ZM19.2232 14.775H21.0232V12.825C21.0232 9.825 22.6732 8.6 24.8982 8.6C25.3482 8.6 25.8732 8.625 26.3482 8.7V10.725H25.2982C23.7732 10.725 23.3732 11.5 23.3732 12.825V14.775H26.2732V16.75H23.3732V27H21.0232V16.75H19.2232V14.775ZM33.3666 27.3C29.7666 27.3 27.2916 24.7 27.2916 20.9C27.2916 17.075 29.7166 14.425 33.2666 14.425C36.7416 14.425 39.0166 16.825 39.0166 20.45V21.325L29.5666 21.35C29.7416 23.925 31.0916 25.35 33.4166 25.35C35.2416 25.35 36.4416 24.6 36.8416 23.2H39.0416C38.4416 25.825 36.3916 27.3 33.3666 27.3ZM33.2666 16.4C31.2166 16.4 29.9166 17.625 29.6166 19.775H36.6666C36.6666 17.75 35.3416 16.4 33.2666 16.4ZM38.3139 11.175V8.925H51.6389V11.175H46.2139V27H43.7639V11.175H38.3139ZM55.2994 27.3C52.6744 27.3 51.1244 25.825 51.1244 23.6C51.1244 21.35 52.7994 19.95 55.6744 19.725L59.5244 19.425V19.075C59.5244 17.025 58.2994 16.3 56.6494 16.3C54.6744 16.3 53.5494 17.175 53.5494 18.65H51.4994C51.4994 16.1 53.5994 14.425 56.7494 14.425C59.7744 14.425 61.8244 16.025 61.8244 19.325V27H59.8244L59.5744 25.025C58.9494 26.425 57.2744 27.3 55.2994 27.3ZM55.9744 25.475C58.1994 25.475 59.5494 24.025 59.5494 21.725V21.075L56.4244 21.325C54.3494 21.525 53.4994 22.325 53.4994 23.525C53.4994 24.825 54.4494 25.475 55.9744 25.475ZM67.4789 27H65.1289V8.6H67.4789V27ZM73.3383 27H70.9883V8.6H73.3383V20.525L78.7633 14.775H81.7133L77.0383 19.65L81.6883 27H78.9883L75.4133 21.35L73.3383 23.525V27Z" fill="black"/>
<path d="M124.275 27.3C121.65 27.3 120.1 25.825 120.1 23.6C120.1 21.35 121.775 19.95 124.65 19.725L128.5 19.425V19.075C128.5 17.025 127.275 16.3 125.625 16.3C123.65 16.3 122.525 17.175 122.525 18.65H120.475C120.475 16.1 122.575 14.425 125.725 14.425C128.75 14.425 130.8 16.025 130.8 19.325V27H128.8L128.55 25.025C127.925 26.425 126.25 27.3 124.275 27.3ZM124.95 25.475C127.175 25.475 128.525 24.025 128.525 21.725V21.075L125.4 21.325C123.325 21.525 122.475 22.325 122.475 23.525C122.475 24.825 123.425 25.475 124.95 25.475ZM135.204 11.875C134.354 11.875 133.654 11.175 133.654 10.325C133.654 9.45 134.354 8.775 135.204 8.775C136.054 8.775 136.754 9.45 136.754 10.325C136.754 11.175 136.054 11.875 135.204 11.875ZM134.054 27V14.775H136.404V27H134.054Z" fill="#126FFF"/></svg>
