<svg id="openai-symbol" xmlns="http://www.w3.org/2000/svg" viewBox="0 0 103 20"><path d="M2.5501 0.924975V16.725H10.5001V19H0.100098V0.924975H2.5501ZM13.9116 3.87498C13.0616 3.87498 12.3616 3.17498 12.3616 2.32498C12.3616 1.44998 13.0616 0.774975 13.9116 0.774975C14.7616 0.774975 15.4616 1.44998 15.4616 2.32498C15.4616 3.17498 14.7616 3.87498 13.9116 3.87498ZM12.7616 19V6.77497H15.1116V19H12.7616ZM17.2233 6.77497H19.0233V4.82498C19.0233 1.82498 20.6733 0.599976 22.8983 0.599976C23.3483 0.599976 23.8733 0.624975 24.3483 0.699975V2.72498H23.2983C21.7733 2.72498 21.3733 3.49997 21.3733 4.82498V6.77497H24.2733V8.74998H21.3733V19H19.0233V8.74998H17.2233V6.77497ZM31.3667 19.3C27.7667 19.3 25.2917 16.7 25.2917 12.9C25.2917 9.07497 27.7167 6.42498 31.2667 6.42498C34.7417 6.42498 37.0167 8.82498 37.0167 12.45V13.325L27.5667 13.35C27.7417 15.925 29.0917 17.35 31.4167 17.35C33.2417 17.35 34.4417 16.6 34.8417 15.2H37.0417C36.4417 17.825 34.3917 19.3 31.3667 19.3ZM31.2667 8.39997C29.2167 8.39997 27.9167 9.62497 27.6167 11.775H34.6667C34.6667 9.74997 33.3417 8.39997 31.2667 8.39997ZM36.314 3.17498V0.924975H49.639V3.17498H44.214V19H41.764V3.17498H36.314ZM53.2995 19.3C50.6745 19.3 49.1245 17.825 49.1245 15.6C49.1245 13.35 50.7995 11.95 53.6745 11.725L57.5245 11.425V11.075C57.5245 9.02498 56.2995 8.29997 54.6495 8.29997C52.6745 8.29997 51.5495 9.17497 51.5495 10.65H49.4995C49.4995 8.09997 51.5995 6.42498 54.7495 6.42498C57.7745 6.42498 59.8245 8.02498 59.8245 11.325V19H57.8245L57.5745 17.025C56.9495 18.425 55.2745 19.3 53.2995 19.3ZM53.9745 17.475C56.1995 17.475 57.5495 16.025 57.5495 13.725V13.075L54.4245 13.325C52.3495 13.525 51.4995 14.325 51.4995 15.525C51.4995 16.825 52.4495 17.475 53.9745 17.475ZM65.479 19H63.129V0.599976H65.479V19ZM71.3384 19H68.9884V0.599976H71.3384V12.525L76.7634 6.77497H79.7134L75.0384 11.65L79.6884 19H76.9884L73.4134 13.35L71.3384 15.525V19Z" fill="black"/>
<path d="M90.2751 19.3C87.6501 19.3 86.1001 17.825 86.1001 15.6C86.1001 13.35 87.7751 11.95 90.6501 11.725L94.5001 11.425V11.075C94.5001 9.02503 93.2751 8.30002 91.6251 8.30002C89.6501 8.30002 88.5251 9.17502 88.5251 10.65H86.4751C86.4751 8.10002 88.5751 6.42502 91.7251 6.42502C94.7501 6.42502 96.8001 8.02503 96.8001 11.325V19H94.8001L94.5501 17.025C93.9251 18.425 92.2501 19.3 90.2751 19.3ZM90.9501 17.475C93.1751 17.475 94.5251 16.025 94.5251 13.725V13.075L91.4001 13.325C89.3251 13.525 88.4751 14.325 88.4751 15.525C88.4751 16.825 89.4251 17.475 90.9501 17.475ZM101.204 3.87502C100.354 3.87502 99.6541 3.17502 99.6541 2.32502C99.6541 1.45002 100.354 0.775024 101.204 0.775024C102.054 0.775024 102.754 1.45002 102.754 2.32502C102.754 3.17502 102.054 3.87502 101.204 3.87502ZM100.054 19V6.77502H102.404V19H100.054Z" fill="#126FFF"/></svg>
